<?xml version="1.0" encoding="UTF-8" standalone="no"?>
<!-- Created with Inkscape (http://www.inkscape.org/) -->

<svg
   xmlns:dc="http://purl.org/dc/elements/1.1/"
   xmlns:cc="http://creativecommons.org/ns#"
   xmlns:rdf="http://www.w3.org/1999/02/22-rdf-syntax-ns#"
   xmlns:svg="http://www.w3.org/2000/svg"
   xmlns="http://www.w3.org/2000/svg"
   xmlns:sodipodi="http://sodipodi.sourceforge.net/DTD/sodipodi-0.dtd"
   xmlns:inkscape="http://www.inkscape.org/namespaces/inkscape"
   width="1260"
   height="765"
   id="svg2"
   version="1.1"
   inkscape:version="0.48.2 r9819"
   sodipodi:docname="drawing.variations.b.pdf"
   inkscape:export-filename="/Users/aemadrid/Synched/Dropbox/Projects/odb/new_site/logo/drawing.sm6.png"
   inkscape:export-xdpi="2.4000001"
   inkscape:export-ydpi="2.4000001">
  <defs
     id="defs4" />
  <sodipodi:namedview
     id="base"
     pagecolor="#ffffff"
     bordercolor="#666666"
     borderopacity="1.0"
     inkscape:pageopacity="0.0"
     inkscape:pageshadow="2"
     inkscape:zoom="1.1104246"
     inkscape:cx="631.35767"
     inkscape:cy="347.20401"
     inkscape:document-units="px"
     inkscape:current-layer="layer1"
     showgrid="false"
     showguides="false"
     inkscape:guide-bbox="true"
     inkscape:snap-to-guides="true"
     inkscape:snap-grids="true"
     inkscape:snap-page="false"
     inkscape:window-width="1961"
     inkscape:window-height="1398"
     inkscape:window-x="599"
     inkscape:window-y="0"
     inkscape:window-maximized="0"
     inkscape:snap-bbox="false">
    <sodipodi:guide
       orientation="1,0"
       position="50,850"
       id="guide2993" />
    <sodipodi:guide
       orientation="1,0"
       position="350,850"
       id="guide2995" />
    <sodipodi:guide
       orientation="0,1"
       position="300,1000"
       id="guide2997" />
    <sodipodi:guide
       orientation="0,1"
       position="300,700"
       id="guide2999" />
    <sodipodi:guide
       orientation="0,1"
       position="400,400"
       id="guide3003" />
    <sodipodi:guide
       orientation="1,0"
       position="200,850"
       id="guide3005" />
    <inkscape:grid
       type="xygrid"
       id="grid3769"
       empspacing="5"
       visible="true"
       enabled="true"
       snapvisiblegridlinesonly="true" />
    <sodipodi:guide
       orientation="1,0"
       position="450,900"
       id="guide4654" />
    <sodipodi:guide
       orientation="0,1"
       position="400,550"
       id="guide4658" />
    <sodipodi:guide
       orientation="0,1"
       position="350,350"
       id="guide4660" />
    <sodipodi:guide
       orientation="0,1"
       position="50,50"
       id="guide4662" />
    <sodipodi:guide
       orientation="1,0"
       position="600,600"
       id="guide4664" />
    <sodipodi:guide
       orientation="1,0"
       position="750,750"
       id="guide4666" />
    <sodipodi:guide
       orientation="1,0"
       position="850,850"
       id="guide4668" />
    <sodipodi:guide
       orientation="1,0"
       position="1000,1000"
       id="guide4670" />
    <sodipodi:guide
       orientation="1,0"
       position="1150,1150"
       id="guide4672" />
    <sodipodi:guide
       orientation="0,1"
       position="200,200"
       id="guide4674" />
  </sodipodi:namedview>
  <metadata
     id="metadata7">
    <rdf:RDF>
      <cc:Work
         rdf:about="">
        <dc:format>image/svg+xml</dc:format>
        <dc:type
           rdf:resource="http://purl.org/dc/dcmitype/StillImage" />
        <dc:title></dc:title>
      </cc:Work>
    </rdf:RDF>
  </metadata>
  <g
     inkscape:label="Layer 1"
     inkscape:groupmode="layer"
     id="layer1"
     transform="translate(0,-287.36218)">
    <path
       sodipodi:type="arc"
       style="fill:#fc6621;fill-opacity:1;stroke:none"
       id="path4809"
       sodipodi:cx="600"
       sodipodi:cy="565"
       sodipodi:rx="125.40675"
       sodipodi:ry="125.40675"
       d="m 725.40675,565 a 125.40675,125.40675 0 1 1 -250.8135,0 125.40675,125.40675 0 1 1 250.8135,0 z"
       transform="matrix(1.1961078,0,0,1.1961078,-117.6647,176.56126)" />
    <path
       sodipodi:type="star"
       style="fill:#ffff00;fill-opacity:1;stroke:none"
       id="path4811"
       sodipodi:sides="4"
       sodipodi:cx="600"
       sodipodi:cy="565"
       sodipodi:r1="67.926239"
       sodipodi:r2="150.94719"
       sodipodi:arg1="-2.3561945"
       sodipodi:arg2="-1.5707963"
       inkscape:flatsided="false"
       inkscape:rounded="0"
       inkscape:randomized="0"
       d="M 551.9689,516.9689 600,414.05281 648.0311,516.9689 750.94719,565 648.0311,613.0311 600,715.94719 551.9689,613.0311 449.05281,565 z"
       transform="matrix(0.70266971,-0.7026697,0.70266971,0.7026697,-218.61021,876.95562)" />
    <path
       transform="matrix(0,-0.99372503,0.99372503,0,38.545358,1448.5972)"
       d="M 551.9689,516.9689 600,414.05281 648.0311,516.9689 750.94719,565 648.0311,613.0311 600,715.94719 551.9689,613.0311 449.05281,565 z"
       inkscape:randomized="0"
       inkscape:rounded="0"
       inkscape:flatsided="false"
       sodipodi:arg2="-1.5707963"
       sodipodi:arg1="-2.3561945"
       sodipodi:r2="150.94719"
       sodipodi:r1="67.926239"
       sodipodi:cy="565"
       sodipodi:cx="600"
       sodipodi:sides="4"
       id="path4821"
       style="fill:#ffff00;fill-opacity:1;stroke:none"
       sodipodi:type="star" />
    <path
       transform="matrix(0.68625082,0,0,0.68625082,188.24949,464.63045)"
       d="m 725.40675,565 a 125.40675,125.40675 0 1 1 -250.8135,0 125.40675,125.40675 0 1 1 250.8135,0 z"
       sodipodi:ry="125.40675"
       sodipodi:rx="125.40675"
       sodipodi:cy="565"
       sodipodi:cx="600"
       id="path4815"
       style="fill:#fc6621;fill-opacity:1;stroke:none"
       sodipodi:type="arc" />
    <path
       sodipodi:type="arc"
       style="fill:#ffffff;fill-opacity:1;stroke:none"
       id="path4819"
       sodipodi:cx="600"
       sodipodi:cy="565"
       sodipodi:rx="125.40675"
       sodipodi:ry="125.40675"
       d="m 725.40675,565 a 125.40675,125.40675 0 1 1 -250.8135,0 125.40675,125.40675 0 1 1 250.8135,0 z"
       transform="matrix(0.45645613,0,0,0.45645613,326.1263,594.46445)" />
    <path
       transform="matrix(1.1961078,0,0,1.1961078,-517.6647,176.56126)"
       d="m 725.40675,565 a 125.40675,125.40675 0 1 1 -250.8135,0 125.40675,125.40675 0 1 1 250.8135,0 z"
       sodipodi:ry="125.40675"
       sodipodi:rx="125.40675"
       sodipodi:cy="565"
       sodipodi:cx="600"
       id="path4823"
       style="fill:#fc6621;fill-opacity:1;stroke:none"
       sodipodi:type="arc" />
    <path
       transform="matrix(0.70266971,-0.7026697,0.70266971,0.7026697,-618.61021,876.95562)"
       d="M 551.9689,516.9689 600,414.05281 648.0311,516.9689 750.94719,565 648.0311,613.0311 600,715.94719 551.9689,613.0311 449.05281,565 z"
       inkscape:randomized="0"
       inkscape:rounded="0"
       inkscape:flatsided="false"
       sodipodi:arg2="-1.5707963"
       sodipodi:arg1="-2.3561945"
       sodipodi:r2="150.94719"
       sodipodi:r1="67.926239"
       sodipodi:cy="565"
       sodipodi:cx="600"
       sodipodi:sides="4"
       id="path4825"
       style="fill:#ffffff;fill-opacity:1;stroke:none"
       sodipodi:type="star" />
    <path
       sodipodi:type="star"
       style="fill:#ffffff;fill-opacity:1;stroke:none"
       id="path4827"
       sodipodi:sides="4"
       sodipodi:cx="600"
       sodipodi:cy="565"
       sodipodi:r1="67.926239"
       sodipodi:r2="150.94719"
       sodipodi:arg1="-2.3561945"
       sodipodi:arg2="-1.5707963"
       inkscape:flatsided="false"
       inkscape:rounded="0"
       inkscape:randomized="0"
       d="M 551.9689,516.9689 600,414.05281 648.0311,516.9689 750.94719,565 648.0311,613.0311 600,715.94719 551.9689,613.0311 449.05281,565 z"
       transform="matrix(0,-0.99372503,0.99372503,0,-361.45465,1448.5972)" />
    <path
       sodipodi:type="arc"
       style="fill:#fc6621;fill-opacity:1;stroke:none"
       id="path4829"
       sodipodi:cx="600"
       sodipodi:cy="565"
       sodipodi:rx="125.40675"
       sodipodi:ry="125.40675"
       d="m 725.40675,565 a 125.40675,125.40675 0 1 1 -250.8135,0 125.40675,125.40675 0 1 1 250.8135,0 z"
       transform="matrix(0.68625082,0,0,0.68625082,-211.75051,464.63045)" />
    <path
       transform="matrix(0.45645613,0,0,0.45645613,-73.873704,594.46445)"
       d="m 725.40675,565 a 125.40675,125.40675 0 1 1 -250.8135,0 125.40675,125.40675 0 1 1 250.8135,0 z"
       sodipodi:ry="125.40675"
       sodipodi:rx="125.40675"
       sodipodi:cy="565"
       sodipodi:cx="600"
       id="path4831"
       style="fill:#ffffff;fill-opacity:1;stroke:none"
       sodipodi:type="arc" />
    <path
       transform="matrix(1.1961078,0,0,1.1961078,-517.66468,-173.43873)"
       d="m 725.40675,565 a 125.40675,125.40675 0 1 1 -250.8135,0 125.40675,125.40675 0 1 1 250.8135,0 z"
       sodipodi:ry="125.40675"
       sodipodi:rx="125.40675"
       sodipodi:cy="565"
       sodipodi:cx="600"
       id="path4843"
       style="fill:#666666;fill-opacity:1;stroke:none"
       sodipodi:type="arc" />
    <path
       transform="matrix(0.70266971,-0.7026697,0.70266971,0.7026697,-618.61019,526.95563)"
       d="M 551.9689,516.9689 600,414.05281 648.0311,516.9689 750.94719,565 648.0311,613.0311 600,715.94719 551.9689,613.0311 449.05281,565 z"
       inkscape:randomized="0"
       inkscape:rounded="0"
       inkscape:flatsided="false"
       sodipodi:arg2="-1.5707963"
       sodipodi:arg1="-2.3561945"
       sodipodi:r2="150.94719"
       sodipodi:r1="67.926239"
       sodipodi:cy="565"
       sodipodi:cx="600"
       sodipodi:sides="4"
       id="path4845"
       style="fill:#ffff00;fill-opacity:1;stroke:none"
       sodipodi:type="star" />
    <path
       sodipodi:type="star"
       style="fill:#fc6621;fill-opacity:1;stroke:none"
       id="path4847"
       sodipodi:sides="4"
       sodipodi:cx="600"
       sodipodi:cy="565"
       sodipodi:r1="67.926239"
       sodipodi:r2="150.94719"
       sodipodi:arg1="-2.3561945"
       sodipodi:arg2="-1.5707963"
       inkscape:flatsided="false"
       inkscape:rounded="0"
       inkscape:randomized="0"
       d="M 551.9689,516.9689 600,414.05281 648.0311,516.9689 750.94719,565 648.0311,613.0311 600,715.94719 551.9689,613.0311 449.05281,565 z"
       transform="matrix(0,-0.99372503,0.99372503,0,-361.45462,1098.5972)" />
    <path
       sodipodi:type="arc"
       style="fill:#666666;fill-opacity:1;stroke:none"
       id="path4849"
       sodipodi:cx="600"
       sodipodi:cy="565"
       sodipodi:rx="125.40675"
       sodipodi:ry="125.40675"
       d="m 725.40675,565 a 125.40675,125.40675 0 1 1 -250.8135,0 125.40675,125.40675 0 1 1 250.8135,0 z"
       transform="matrix(0.68625082,0,0,0.68625082,-211.75049,114.63046)" />
    <path
       transform="matrix(0.45645613,0,0,0.45645613,-73.87368,244.46446)"
       d="m 725.40675,565 a 125.40675,125.40675 0 1 1 -250.8135,0 125.40675,125.40675 0 1 1 250.8135,0 z"
       sodipodi:ry="125.40675"
       sodipodi:rx="125.40675"
       sodipodi:cy="565"
       sodipodi:cx="600"
       id="path4851"
       style="fill:#ffffff;fill-opacity:1;stroke:none"
       sodipodi:type="arc" />
    <path
       sodipodi:type="arc"
       style="fill:#ffffff;fill-opacity:1;stroke:none"
       id="path4853"
       sodipodi:cx="600"
       sodipodi:cy="565"
       sodipodi:rx="125.40675"
       sodipodi:ry="125.40675"
       d="m 725.40675,565 a 125.40675,125.40675 0 1 1 -250.8135,0 125.40675,125.40675 0 1 1 250.8135,0 z"
       transform="matrix(1.1961078,0,0,1.1961078,-117.6647,-173.43874)" />
    <path
       sodipodi:type="star"
       style="fill:#ffff00;fill-opacity:1;stroke:none"
       id="path4855"
       sodipodi:sides="4"
       sodipodi:cx="600"
       sodipodi:cy="565"
       sodipodi:r1="67.926239"
       sodipodi:r2="150.94719"
       sodipodi:arg1="-2.3561945"
       sodipodi:arg2="-1.5707963"
       inkscape:flatsided="false"
       inkscape:rounded="0"
       inkscape:randomized="0"
       d="M 551.9689,516.9689 600,414.05281 648.0311,516.9689 750.94719,565 648.0311,613.0311 600,715.94719 551.9689,613.0311 449.05281,565 z"
       transform="matrix(0.70266971,-0.7026697,0.70266971,0.7026697,-218.61021,526.95562)" />
    <path
       transform="matrix(0,-0.99372503,0.99372503,0,38.545358,1098.5972)"
       d="M 551.9689,516.9689 600,414.05281 648.0311,516.9689 750.94719,565 648.0311,613.0311 600,715.94719 551.9689,613.0311 449.05281,565 z"
       inkscape:randomized="0"
       inkscape:rounded="0"
       inkscape:flatsided="false"
       sodipodi:arg2="-1.5707963"
       sodipodi:arg1="-2.3561945"
       sodipodi:r2="150.94719"
       sodipodi:r1="67.926239"
       sodipodi:cy="565"
       sodipodi:cx="600"
       sodipodi:sides="4"
       id="path4857"
       style="fill:#fc6621;fill-opacity:1;stroke:none"
       sodipodi:type="star" />
    <path
       transform="matrix(0.68625082,0,0,0.68625082,188.24949,114.63045)"
       d="m 725.40675,565 a 125.40675,125.40675 0 1 1 -250.8135,0 125.40675,125.40675 0 1 1 250.8135,0 z"
       sodipodi:ry="125.40675"
       sodipodi:rx="125.40675"
       sodipodi:cy="565"
       sodipodi:cx="600"
       id="path4859"
       style="fill:#666666;fill-opacity:1;stroke:none"
       sodipodi:type="arc" />
    <path
       sodipodi:type="arc"
       style="fill:#ffffff;fill-opacity:1;stroke:none"
       id="path4861"
       sodipodi:cx="600"
       sodipodi:cy="565"
       sodipodi:rx="125.40675"
       sodipodi:ry="125.40675"
       d="m 725.40675,565 a 125.40675,125.40675 0 1 1 -250.8135,0 125.40675,125.40675 0 1 1 250.8135,0 z"
       transform="matrix(0.45645613,0,0,0.45645613,326.1263,244.46445)" />
    <path
       transform="matrix(1.1961078,0,0,1.1961078,282.33532,176.56127)"
       d="m 725.40675,565 a 125.40675,125.40675 0 1 1 -250.8135,0 125.40675,125.40675 0 1 1 250.8135,0 z"
       sodipodi:ry="125.40675"
       sodipodi:rx="125.40675"
       sodipodi:cy="565"
       sodipodi:cx="600"
       id="path4873"
       style="fill:#ffffff;fill-opacity:1;stroke:none"
       sodipodi:type="arc" />
    <path
       transform="matrix(0.70266971,-0.7026697,0.70266971,0.7026697,181.38981,876.95563)"
       d="M 551.9689,516.9689 600,414.05281 648.0311,516.9689 750.94719,565 648.0311,613.0311 600,715.94719 551.9689,613.0311 449.05281,565 z"
       inkscape:randomized="0"
       inkscape:rounded="0"
       inkscape:flatsided="false"
       sodipodi:arg2="-1.5707963"
       sodipodi:arg1="-2.3561945"
       sodipodi:r2="150.94719"
       sodipodi:r1="67.926239"
       sodipodi:cy="565"
       sodipodi:cx="600"
       sodipodi:sides="4"
       id="path4875"
       style="fill:#fc6621;fill-opacity:1;stroke:none"
       sodipodi:type="star" />
    <path
       sodipodi:type="star"
       style="fill:#fc6621;fill-opacity:1;stroke:none"
       id="path4877"
       sodipodi:sides="4"
       sodipodi:cx="600"
       sodipodi:cy="565"
       sodipodi:r1="67.926239"
       sodipodi:r2="150.94719"
       sodipodi:arg1="-2.3561945"
       sodipodi:arg2="-1.5707963"
       inkscape:flatsided="false"
       inkscape:rounded="0"
       inkscape:randomized="0"
       d="M 551.9689,516.9689 600,414.05281 648.0311,516.9689 750.94719,565 648.0311,613.0311 600,715.94719 551.9689,613.0311 449.05281,565 z"
       transform="matrix(0,-0.99372503,0.99372503,0,438.54538,1448.5972)" />
    <path
       sodipodi:type="arc"
       style="fill:#666666;fill-opacity:1;stroke:none"
       id="path4879"
       sodipodi:cx="600"
       sodipodi:cy="565"
       sodipodi:rx="125.40675"
       sodipodi:ry="125.40675"
       d="m 725.40675,565 a 125.40675,125.40675 0 1 1 -250.8135,0 125.40675,125.40675 0 1 1 250.8135,0 z"
       transform="matrix(0.68625082,0,0,0.68625082,588.24951,464.63046)" />
    <path
       transform="matrix(0.45645613,0,0,0.45645613,726.12632,594.46446)"
       d="m 725.40675,565 a 125.40675,125.40675 0 1 1 -250.8135,0 125.40675,125.40675 0 1 1 250.8135,0 z"
       sodipodi:ry="125.40675"
       sodipodi:rx="125.40675"
       sodipodi:cy="565"
       sodipodi:cx="600"
       id="path4881"
       style="fill:#ffffff;fill-opacity:1;stroke:none"
       sodipodi:type="arc" />
    <path
       transform="matrix(1.1961078,0,0,1.1961078,282.33532,-173.43873)"
       d="m 725.40675,565 a 125.40675,125.40675 0 1 1 -250.8135,0 125.40675,125.40675 0 1 1 250.8135,0 z"
       sodipodi:ry="125.40675"
       sodipodi:rx="125.40675"
       sodipodi:cy="565"
       sodipodi:cx="600"
       id="path4883"
       style="fill:#fc6621;fill-opacity:1;stroke:none"
       sodipodi:type="arc" />
    <path
       transform="matrix(0.70266971,-0.7026697,0.70266971,0.7026697,181.38981,526.95563)"
       d="M 551.9689,516.9689 600,414.05281 648.0311,516.9689 750.94719,565 648.0311,613.0311 600,715.94719 551.9689,613.0311 449.05281,565 z"
       inkscape:randomized="0"
       inkscape:rounded="0"
       inkscape:flatsided="false"
       sodipodi:arg2="-1.5707963"
       sodipodi:arg1="-2.3561945"
       sodipodi:r2="150.94719"
       sodipodi:r1="67.926239"
       sodipodi:cy="565"
       sodipodi:cx="600"
       sodipodi:sides="4"
       id="path4885"
       style="fill:#ffffff;fill-opacity:1;stroke:none"
       sodipodi:type="star" />
    <path
       sodipodi:type="star"
       style="fill:#ffffff;fill-opacity:1;stroke:none"
       id="path4887"
       sodipodi:sides="4"
       sodipodi:cx="600"
       sodipodi:cy="565"
       sodipodi:r1="67.926239"
       sodipodi:r2="150.94719"
       sodipodi:arg1="-2.3561945"
       sodipodi:arg2="-1.5707963"
       inkscape:flatsided="false"
       inkscape:rounded="0"
       inkscape:randomized="0"
       d="M 551.9689,516.9689 600,414.05281 648.0311,516.9689 750.94719,565 648.0311,613.0311 600,715.94719 551.9689,613.0311 449.05281,565 z"
       transform="matrix(0,-0.99372503,0.99372503,0,438.54538,1098.5972)" />
    <path
       sodipodi:type="arc"
       style="fill:#666666;fill-opacity:1;stroke:none"
       id="path4889"
       sodipodi:cx="600"
       sodipodi:cy="565"
       sodipodi:rx="125.40675"
       sodipodi:ry="125.40675"
       d="m 725.40675,565 a 125.40675,125.40675 0 1 1 -250.8135,0 125.40675,125.40675 0 1 1 250.8135,0 z"
       transform="matrix(0.68625082,0,0,0.68625082,588.24951,114.63046)" />
    <path
       transform="matrix(0.45645613,0,0,0.45645613,726.12632,244.46446)"
       d="m 725.40675,565 a 125.40675,125.40675 0 1 1 -250.8135,0 125.40675,125.40675 0 1 1 250.8135,0 z"
       sodipodi:ry="125.40675"
       sodipodi:rx="125.40675"
       sodipodi:cy="565"
       sodipodi:cx="600"
       id="path4891"
       style="fill:#ffffff;fill-opacity:1;stroke:none"
       sodipodi:type="arc" />
  </g>
</svg>
